<?xml version="1.0" encoding="utf-8"?>
<!-- Generator: Adobe Illustrator 14.0.0, SVG Export Plug-In . SVG Version: 6.00 Build 43363)  -->
<!DOCTYPE svg PUBLIC "-//W3C//DTD SVG 1.1//EN" "http://www.w3.org/Graphics/SVG/1.1/DTD/svg11.dtd">
<svg version="1.1" id="Capa_1" xmlns="http://www.w3.org/2000/svg" xmlns:xlink="http://www.w3.org/1999/xlink" x="0px" y="0px"
	 width="612px" height="612px" viewBox="0 0 612 612" enable-background="new 0 0 612 612" xml:space="preserve">
<path display="none" d="M339.296,19.573c-92.188,0-173.778,46.021-223.165,116.25c10.221,6.668,20.184,15.813,29.82,27.567
	c36.844-55.092,96.417-93.743,165.344-102.053l27.996,47.377l27.997-47.378c105.952,12.77,190.171,96.983,202.945,202.935
	l-47.385,28.001l47.386,28.002c-8.54,70.836-49.107,131.821-106.661,168.372c3.666,8.357,5.731,16.902,6.097,25.712
	c0.269,6.438-0.396,12.521-1.73,18.296C553.609,486.622,612,396.153,612,292.277C612,141.904,489.669,19.573,339.296,19.573z"/>
<g>
	<g>
		<path fill="#FF4308" d="M218.683,304.505v-20.32l16.935-14.677c24.835-21.449,37.253-34.432,37.817-46.85
			c0-9.031-5.644-15.24-18.063-15.24c-10.16,0-19.191,5.081-25.964,10.161l-9.032-24.272c8.468-7.338,23.708-12.983,41.206-12.983
			c28.223,0,45.157,15.241,45.157,39.513c0,19.756-14.111,35.561-28.223,47.415l-11.854,9.031v0.565h31.045v27.657H218.683z"/>
		<path fill="#FF4308" d="M350.201,304.505v-27.657h-53.059v-22.015l42.334-72.815h42.334v69.428h30.482l-11.29,25.402h-19.192
			v27.657H350.201z M350.201,252.01v-20.885c0-7.902,0.565-15.805,1.13-24.272h-0.564c-3.952,7.903-7.339,15.805-11.854,24.272
			l-10.16,20.32v0.564H350.201z"/>
	</g>
	<g>
		<path fill="#FF4308" d="M491.317,252.01v18.627l-49.107,101.038h-36.126l49.108-93.7v-0.564h-49.108l11.29-25.401H491.317z"/>
	</g>
</g>
<path fill-rule="evenodd" clip-rule="evenodd" fill="#FF4308" d="M444.061,496.269c-5.469-23.23-75.135-60.335-95.864-72.437
	c-1.127-0.657-2.118-1.246-2.938-1.751c-13.34-8.2-27.688-6.029-39.913,2.668c-9.734,6.924-18.284,27.145-37.341,32.525
	c-11.321,3.196-28.126-3.406-37.066-8.758c-27.759-16.612-74.583-64.152-90.029-91.358c-4.715-8.304-9.928-28.552-4.116-40.149
	c2.346-4.678,4.867-7.313,8.373-10.773c16.179-15.967,39.255-32.37,25.913-58.73c-5.14-7.709-54.19-87.68-65.903-94.388
	c-8.958-5.13-14.729-8.165-28.45-4.285c-0.125,0.036-0.251,0.076-0.377,0.113c-28.373,8.311-61.842,50.645-65.38,81.265
	c-4.817,43.753,4.64,58.364,16.352,86.433c10.43,24.998,27.756,52.794,49.028,80.541c48.922,63.813,118.746,127.363,173.785,156.011
	c25.899,11.02,64.184,26.145,98.063,27.104c15.314,0.435,29.729-2.026,41.693-9.07c18.462-10.871,42.241-33.038,52.354-52.373
	C444.504,514.537,444.935,499.981,444.061,496.269z M93.497,226.414c-7.405,6.027-12.973,11.975-17.149,18.021
	c-12.562,18.189-12.523,37.271-11.97,62.092c-11.092-12.76-21.635-41.994-13.436-79.825c3.783-13.652,13.544-21.493,25.406-30.844
	c3.027-2.386,6.19-4.87,9.426-7.573l18.804,27.177C105.715,216.665,96.501,223.969,93.497,226.414z M357.323,544.051
	c-2.727,0.299-5.814,0.446-9.127,0.448c-19.959,0.007-48.125-5.319-55.22-15.004c25.598,0,41.627-5.98,55.22-16.192
	c9.375-7.045,17.591-16.101,26.986-26.599c4.206,1.122,22.618,14.954,28.152,20.27C405.145,508.411,376.39,541.174,357.323,544.051z
	"/>
<path fill="#FF4308" d="M529.517,135.963c-40.206-57.69-101.813-96.906-171.101-108.914
	c-97.047-16.843-195.461,21.288-255.825,99.122c10.335,5.353,19.707,12.391,27.73,20.826
	C182.787,79.604,268.12,46.599,352.281,61.151c125.334,21.966,209.13,141.378,187.161,266.712
	c-10.081,57.526-41.635,109.075-88.276,144.225c6.307,10.579,9.988,22.516,10.737,34.812l2.655-1.713
	c119.896-84.019,148.98-249.322,64.962-369.219C529.518,135.966,529.517,135.966,529.517,135.963z"/>
</svg>
