<?xml version="1.0" encoding="utf-8"?>
<!-- Generator: Adobe Illustrator 14.0.0, SVG Export Plug-In . SVG Version: 6.00 Build 43363)  -->
<!DOCTYPE svg PUBLIC "-//W3C//DTD SVG 1.1//EN" "http://www.w3.org/Graphics/SVG/1.1/DTD/svg11.dtd">
<svg version="1.1" id="Layer_1" xmlns="http://www.w3.org/2000/svg" xmlns:xlink="http://www.w3.org/1999/xlink" x="0px" y="0px"
	 width="673px" height="176px" viewBox="0 0 673 176" enable-background="new 0 0 673 176" xml:space="preserve">
<g>
	<path fill="#EF4823" d="M121.229,156.473l9.63-45.444h16.428c5.979,0,14.917,1.636,14.917,9.189
		c0,6.294-4.721,10.763-10.449,12.525v0.126c4.658,1.007,7.805,4.028,7.805,9.001c0,10.7-11.645,14.603-20.52,14.603H121.229z
		 M140.237,148.92c5.476,0,9.253-1.889,9.253-7.994c0-3.902-3.714-4.091-6.735-4.091h-7.616l-2.518,12.085H140.237z
		 M144.455,129.281c4.28,0,7.616-2.203,7.553-6.798c0-3.147-2.707-3.902-5.35-3.902h-7.616l-2.266,10.7H144.455z"/>
	<path fill="#EF4823" d="M165.945,156.473h-6.799l14.334-31.266h7.665l1.646,31.266h-6.453l-0.173-6.929h-7.275L165.945,156.473z
		 M175.732,133.738h-0.087l-4.677,10.999h5.067L175.732,133.738z"/>
	<path fill="#EF4823" d="M192.577,125.207h6.539l-5.586,26.459h7.492l5.586-26.459h6.539l-5.586,26.459h7.492l5.586-26.459h6.539
		l-6.625,31.266h-34.6L192.577,125.207z"/>
</g>
<g>
	<path fill="#FFFFFF" d="M229.686,156.473l26.058-45.444h11.582l6.168,45.444h-9.819l-1.196-9.63h-18.001l-5.476,9.63H229.686z
		 M261.598,139.289l-2.14-19.386h-0.125l-10.763,19.386H261.598z"/>
	<path fill="#FFFFFF" d="M277.203,156.473l6.81-32.136h11.439c5.119,0,9.036,1.469,7.611,8.323
		c-0.801,3.694-3.205,6.364-6.988,7.077l-0.044,0.089c4.629,0.667,5.252,3.738,4.317,8.146c-1.736,8.145-8.902,8.501-11.75,8.501
		H277.203z M284.992,151.532h3.25c1.424,0,4.629-0.045,5.563-4.54c0.624-2.849-0.089-4.585-3.472-4.585h-3.427L284.992,151.532z
		 M287.975,137.467h4.006c1.469,0,3.694-0.979,4.362-4.095c0.534-2.359-0.712-4.095-2.982-4.095h-3.65L287.975,137.467z"/>
	<path fill="#FFFFFF" d="M329.768,124.337l-1.113,5.341h-7.478l-5.697,26.795h-6.721l5.697-26.795h-7.478l1.113-5.341H329.768z"/>
	<path fill="#FFFFFF" d="M329.188,140.404c1.78-8.501,3.516-16.602,14.599-16.602c11.083,0,9.348,8.101,7.567,16.602
		c-1.78,8.413-3.562,16.603-14.644,16.603C325.627,157.007,327.408,148.817,329.188,140.404z M344.545,140.404
		c1.735-8.234,2.002-11.795-1.781-11.795s-5.029,3.561-6.765,11.795c-1.781,8.234-2.047,11.795,1.736,11.795
		S342.764,148.639,344.545,140.404z"/>
</g>
<g>
	<path fill="#EF4823" d="M385.963,130.037c0.125-1.196,0.188-2.393,0.251-3.588c0-3.966-0.943-9.315-6.042-9.315
		c-5.351,0-9.441,3.336-10.448,8.623h-10.386c2.77-11.078,10.952-15.673,21.778-15.673c10.07,0,15.547,6.168,15.547,15.861
		c0,14.54-7.994,31.472-24.296,31.472c-10.512,0-18.442-4.154-16.429-15.673h10.449c-0.189,0.755-0.315,1.511-0.378,2.329
		c0,4.343,3.084,6.294,7.176,6.294c6.105,0,9.63-7.931,11.203-12.84H370.29l1.573-7.554h14.1V130.037z"/>
	<path fill="#EF4823" d="M417.058,156.473h-6.722l5.787-27.195h-5.697l-1.647,7.789c-2.492,11.751-4.05,14.421-8.278,18.026
		c-1.647,1.38-3.873,1.825-4.896,1.825c-1.157,0-2.359-0.356-2.894-0.846l1.158-5.475c0.178,0.178,0.756,0.355,1.29,0.355
		s1.469-0.312,2.048-0.935c2.804-2.982,3.115-4.94,5.652-16.691l1.87-8.99h19.139L417.058,156.473z"/>
	<path fill="#EF4823" d="M422.887,156.473l6.811-32.136h17.537l-1.024,4.94h-10.815l-1.691,7.923h9.97l-1.067,4.94h-9.971
		l-1.958,9.392h11.172l-1.068,4.94H422.887z"/>
	<path fill="#EF4823" d="M466.238,124.337h7.389l-12.018,14.421l5.208,17.715h-7.566l-4.185-16.469h-0.089l-3.516,16.469h-6.722
		l6.811-32.136h6.721l-2.894,13.753h0.09L466.238,124.337z"/>
	<path fill="#EF4823" d="M495.836,124.337l-1.112,5.341h-7.478l-5.697,26.795h-6.721l5.697-26.795h-7.479l1.113-5.341H495.836z"/>
	<path fill="#EF4823" d="M498.995,124.337h12.107c6.142,0,7.789,3.738,6.543,9.613c-0.802,3.65-3.116,9.437-10.994,9.437h-4.985
		l-2.76,13.086h-6.721L498.995,124.337z M502.734,138.446h3.739c2.003,0,3.827-2.181,4.317-4.317
		c0.534-2.626,0.312-4.852-2.716-4.852h-3.383L502.734,138.446z"/>
	<path fill="#EF4823" d="M526.591,143.876l11.306-19.539h7.166l-6.81,32.136h-6.721l4.139-19.54h-0.089l-11.306,19.54h-7.166
		l6.811-32.136h6.721l-4.14,19.539H526.591z"/>
	<path fill="#EF4823" d="M565.179,124.337h7.389l-12.018,14.421l5.208,17.715h-7.566l-4.185-16.469h-0.089l-3.516,16.469h-6.722
		l6.811-32.136h6.721l-2.894,13.753h0.09L565.179,124.337z"/>
</g>
<path fill="#FFFFFF" d="M109.825,126.02c4.516-10.495,11.126-19.704,20.379-26.493c8.056-5.912,17.869-9.048,27.588-10.842
	c11.326-2.091,22.97-1.977,34.413-2.983c13.819-1.213,27.292-3.902,39.808-10.058c12.043-5.926,22.98-13.837,35.289-19.275
	c10.995-4.859,23.142-6.847,35.105-6.96c22.837-0.214,44.942,7.654,65.939,15.816c17.334,6.734,34.465,14.064,52.425,19.008
	c8.792,2.419,17.774,4.09,26.865,4.822c4.564,0.367,9.143,0.371,13.712,0.161c5.798-0.276,11.506-0.158,16.949-2.421
	c2.68-1.118,0.322-11.995,0-11.856c-5.829,2.42-12.117,2.188-18.33,2.484c-5.927,0.278-11.868-0.081-17.76-0.756
	c-11.367-1.306-22.489-4.332-33.333-7.897c-22.082-7.256-43.132-17.317-65.33-24.242c-21.879-6.823-44.787-9.571-67.137-3.312
	c-12.966,3.632-24.354,11.315-35.895,17.971c-12.117,6.994-24.486,11.432-38.333,13.505c-18.928,2.84-38.462,1.14-56.823,7.31
	c-17.468,5.864-29.559,19.122-36.732,35.779c-0.993,2.31-0.706,5.695-0.423,8.111C108.289,124.629,108.864,128.25,109.825,126.02
	L109.825,126.02L109.825,126.02z"/>
<path fill="#EF4823" d="M240.446,102.591c4.771-10.494,12.498-18.545,23.141-23.078c9.37-3.992,19.621-4.507,29.636-5.067
	c11.767-0.658,23.635-1.226,35.171-3.8c9.305-2.078,16.328-7.385,23.543-13.369c8.268-6.851,16.064-14.465,25.133-20.282
	c7.582-4.864,16.816-5.795,25.6-6.539c10.27-0.872,21.142-1.07,31.248,1.222c5.813,1.316,3.665,11.714,3.586,15.688
	c-0.108,5.259-1.142,19.226,6.925,19.25c6.477,0.019,12.949,0.028,19.427,0.035c35.39,0.034,70.78-0.039,106.17-0.188
	c1.775-0.007,1.745-11.866,0-11.859c-40.884,0.173-81.766,0.26-122.65,0.162c-2.36-0.007-5.126,0.469-6.708-1.662
	c-1.298-1.742-0.815-4.662-0.775-6.638c0.084-4.126,0.236-8.236,0.058-12.367c-0.271-6.278-0.928-13.277-7.979-14.698
	c-10.359-2.087-21.483-1.551-31.932-0.569c-6.546,0.611-13.504,1.464-19.495,4.335c-6.339,3.038-11.892,7.949-17.225,12.438
	c-6.207,5.225-12.229,10.688-18.721,15.568c-6.22,4.675-12.586,6.991-20.203,8.439c-16.711,3.186-33.959,1.656-50.605,4.974
	c-16.036,3.196-27.811,12.962-34.539,27.767c-1.031,2.26-0.706,5.733-0.428,8.108C238.917,101.245,239.451,104.782,240.446,102.591
	L240.446,102.591L240.446,102.591z"/>
<circle fill="#EF4823" cx="69.25" cy="122.528" r="11.5"/>
<circle fill="#EF4823" cx="612.25" cy="122.528" r="11.5"/>
</svg>
